<?xml version="1.0" encoding="UTF-8"?>
<svg width="105px" height="108px" viewBox="0 0 105 108" version="1.1" xmlns="http://www.w3.org/2000/svg" xmlns:xlink="http://www.w3.org/1999/xlink">
    <!-- Generator: Sketch 52.5 (67469) - http://www.bohemiancoding.com/sketch -->
    <title>分组</title>
    <desc>Created with Sketch.</desc>
    <defs>
        <path d="M45.3279767,1.63067442 L27.0973256,19.8606977 L8.80451163,1.63067442 C6.78453488,-0.316465116 3.58032558,-0.293232558 1.58797674,1.68153488 C-0.404372093,3.65693023 -0.454604651,6.86113953 1.47495349,8.89744186 L23.4008372,30.8239535 C24.3489767,31.8405349 25.6763721,32.4169535 27.0659302,32.4169535 C28.4561163,32.4169535 29.7835116,31.8405349 30.7310233,30.8239535 L52.656907,8.89744186 C54.5858372,6.86113953 54.5362326,3.65693023 52.5445116,1.68153488 C51.5386047,0.684418605 50.2243953,0.184604651 48.9095581,0.184604651 C47.6192093,0.185232558 46.3282326,0.666209302 45.3279767,1.63067442 Z" id="path-1"></path>
        <path d="M45.3279767,1.70288372 L27.0973256,19.9322791 L8.80451163,1.70288372 C6.78453488,-0.244255814 3.58032558,-0.221023256 1.58797674,1.75437209 C-0.404372093,3.72851163 -0.454604651,6.93334884 1.47495349,8.97027907 L23.4008372,30.8955349 C24.3489767,31.9121163 25.6763721,32.4885349 27.0659302,32.4885349 C28.4561163,32.4885349 29.7835116,31.9121163 30.7310233,30.8955349 L52.656907,8.97027907 C54.5858372,6.93334884 54.5362326,3.72851163 52.5445116,1.75437209 C51.5386047,0.756627907 50.2243953,0.25744186 48.9095581,0.25744186 C47.6192093,0.258069767 46.3282326,0.739046512 45.3279767,1.70288372 Z" id="path-3"></path>
    </defs>
    <g id="页面-1" stroke="none" stroke-width="1" fill="none" fill-rule="evenodd">
        <g id="首页第一屏" transform="translate(-896.000000, -736.000000)">
            <g id="分组" transform="translate(896.000000, 736.000000)">
                <g transform="translate(25.116279, 75.016047)">
                    <mask id="mask-2" fill="white">
                        <use xlink:href="#path-1"></use>
                    </mask>
                    <use id="Clip-2" fill="#EEE8E1" xlink:href="#path-1"></use>
                    <polygon id="Fill-1" fill="#EEE8E1" mask="url(#mask-2)" points="-6.19932558 38.6765581 60.331814 38.6765581 60.331814 -6.075 -6.19932558 -6.075"></polygon>
                </g>
                <g transform="translate(25.116279, 43.620698)">
                    <mask id="mask-4" fill="white">
                        <use xlink:href="#path-3"></use>
                    </mask>
                    <g id="Clip-4"></g>
                    <polygon id="Fill-3" fill="#EEE8E1" mask="url(#mask-4)" points="-6.19932558 38.7487674 60.331814 38.7487674 60.331814 -6.0027907 -6.19932558 -6.0027907"></polygon>
                </g>
                <path d="M6.51258837,75.3423698 C5.92298372,75.3423698 5.35786744,75.0083233 5.09037907,74.4388116 C1.84158837,67.5123698 0.193960465,60.092393 0.193960465,52.384207 C0.193960465,23.717114 23.5163093,0.395393023 52.1827744,0.395393023 C80.8492395,0.395393023 104.17096,23.717114 104.17096,52.384207 C104.17096,60.0735558 102.531495,67.4778349 99.2977744,74.389207 C98.9304488,75.1740907 97.9961233,75.5137884 97.2099837,75.1464628 C96.4244721,74.7791372 96.0860302,73.8441837 96.4533558,73.0586721 C99.4911698,66.566114 101.031426,59.6101605 101.031426,52.384207 C101.031426,25.4482535 79.1181,3.53492791 52.1827744,3.53492791 C25.2468209,3.53492791 3.33349535,25.4482535 3.33349535,52.384207 C3.33349535,59.6283698 4.88065814,66.599393 7.93291395,73.1051372 C8.30086744,73.8900209 7.96305349,74.8249744 7.17816977,75.1935558 C6.96279767,75.2946488 6.73612326,75.3423698 6.51258837,75.3423698" id="Fill-5" fill="#EEE8E1"></path>
            </g>
        </g>
    </g>
</svg>